<svg
  xmlns="http://www.w3.org/2000/svg"
  viewBox="0 0 320 320" width="32" height="32">

    <path d="M 255.8,122.4 164.7,61.62 c -2.9,-1.88 -6.6,-1.88 -9.4,0 L 63.95,122.4 C 61.3,124.3 60,126.7 60,129.1 l 0,61.1 c 0,2.9 2.09,5.3 4.04,6.7 L 155,258.3 c 3.4,2 6.8,1.9 9.7,0 l 91.4,-61 c 2.6,-1.4 3.9,-4 3.9,-6.9 l 0,-61.1 c 0,-3.4 -2.2,-5.6 -4.2,-6.9 z m -87.3,-37.64 67.3,44.54 -30.1,20.2 -37.2,-25 z m -17,0 0,39.74 -37.3,25 L 84.17,129.3 151.5,84.52 z M 77.3,145.5 98.75,159.8 77.3,174.3 z m 74.2,89.6 -67.35,-44.7 30.05,-20.1 37.3,25 z m 8.5,-54.8 -30.5,-20.5 30.5,-20.3 30.4,20.3 z m 8.5,54.8 0,-40.1 37.2,-24.7 30.1,20.1 z m 74.1,-60.8 -21.4,-14.5 21.4,-14.3 z"></path>

</svg>
