<svg
  xmlns="http://www.w3.org/2000/svg"
  viewBox="0 0 320 320" width="32" height="32">
    <title>github</title>
    <path d="m 197.1,320 0,-62.2 c 0,-12.7 -3.3,-22 -10,-28 7.3,-0.7 14,-1.7 20,-3 6,-2 12,-4.7 18,-8 6.7,-3.3 12,-7.7 16,-13 4,-5.3 7.3,-12 10,-20 2.7,-8.7 4,-18.7 4,-30 0,-15.3 -5,-28.7 -15,-40 4.7,-12 4,-25.29 -2,-39.82 -3.3,-1.2 -8.7,-0.5 -16,2.1 -6.7,2.67 -12.3,5.53 -17,8.6 l -8,5.1 c -12,-3.6 -24.3,-5.4 -37,-5.4 -13.3,0 -26,1.8 -38,5.4 -2,-2 -4.7,-3.87 -8,-5.6 -3.3,-2.13 -9,-4.67 -16.88,-7.6 -7.07,-2.93 -12.5,-3.8 -16.3,-2.6 -5.73,14.53 -6.2,27.82 -1.39,39.82 -10.27,11.3 -15.41,24.7 -15.41,40 0,11.3 1.33,21.3 4,30 2.67,8 6.1,14.7 10.3,20 4.13,5.3 9.4,9.7 15.8,13 5.88,3.3 11.88,6 17.88,8 6,1.3 12.7,2.3 20,3 -5.3,4.7 -8.3,11.3 -9,20 -2.7,1.3 -5.7,2.3 -9,3 -3.3,0.7 -7,1 -11,1 -4.59,0 -8.88,-1.3 -12.88,-4 -4.27,-2.7 -7.9,-6.7 -10.9,-12 -2.47,-4 -5.6,-7.3 -9.4,-10 -3.87,-2.7 -7.1,-4.3 -9.7,-5 l -3.9,-1 c -2.73,0 -4.63,0.3 -5.7,1 -1,0.7 -1.33,1.7 -1,3 0.4,0.7 1,1.3 1.8,2 0.8,1.3 1.63,2.3 2.5,3 l 1.4,1 c 2.87,1.3 5.7,3.7 8.5,7 2.8,4 4.87,7.3 6.2,10 l 1.9,5 c 1.67,4.7 4.53,8.7 8.6,12 4.07,2.7 8.3,4.3 12.7,5 4.59,1.3 9.18,2 13.88,2 4.7,0 8.3,-0.3 11,-1 l 4,-1 0,49.2 z" />

</svg>
