<svg
  xmlns="http://www.w3.org/2000/svg"
  viewBox="0 0 320 320" width="32" height="32">

    <path d="m 253.4,107.6 c 4.7,-2.6 6.8,-5.6 6.2,-9 -0.3,-2.1 -2.2,-3.1 -5.8,-3.1 l -188.02,0 c -5.64,0 -7.14,2.5 -4.5,7.1 1.22,2.1 3,3.7 5.36,5 2.08,0.8 16.29,8.4 42.66,22.5 26.5,13.5 39.9,21.6 40.5,22 6,2.9 15,3 20.5,0 0.5,-0.4 14,-8.5 40.4,-22 26.4,-14.1 40.6,-21.7 42.7,-22.5 z M 64.43,129.7 C 61.44,128.2 60,129.1 60,132.1 l 0,81.6 c 0.58,5 6.28,10.8 11.08,10.8 l 177.82,0 c 5.2,-0.8 11,-5.8 11.1,-10.8 l 0,-81.6 c 0,-2.9 -1.5,-3.8 -4.4,-2.3 l -85.3,44.4 c -6.1,2.9 -14.9,3.1 -20.5,0 z"></path>

</svg>
